<svg width="64" height="64" viewBox="0 0 64 64" fill="none" xmlns="http://www.w3.org/2000/svg">
<path d="M62.125 34.125L41.125 55.125C39.25 57 36 55.6875 36 53V41H19C17.3375 41 16 39.6625 16 38V26C16 24.3375 17.3375 23 19 23H36V11C36 8.32497 39.2375 6.99997 41.125 8.87497L62.125 29.875C63.2875 31.05 63.2875 32.95 62.125 34.125ZM24 54.5V49.5C24 48.675 23.325 48 22.5 48H12C9.7875 48 8 46.2125 8 44V20C8 17.7875 9.7875 16 12 16H22.5C23.325 16 24 15.325 24 14.5V9.49997C24 8.67497 23.325 7.99997 22.5 7.99997H12C5.375 7.99997 0 13.375 0 20V44C0 50.625 5.375 56 12 56H22.5C23.325 56 24 55.325 24 54.5Z" fill="#F9F3F3"/>
</svg>
